<?xml version="1.0" standalone="no"?>
<!DOCTYPE svg PUBLIC "-//W3C//DTD SVG 20010904//EN"
 "http://www.w3.org/TR/2001/REC-SVG-20010904/DTD/svg10.dtd">
<svg version="1.0" xmlns="http://www.w3.org/2000/svg"
 width="326.000000pt" height="326.000000pt" viewBox="0 0 326.000000 326.000000"
 preserveAspectRatio="xMidYMid meet">
<metadata>
Created by potrace 1.14, written by Peter Selinger 2001-2017
</metadata>
<g transform="translate(0.000000,326.000000) scale(0.100000,-0.100000)"
fill="#000000" stroke="none">
<path d="M0 3095 l0 -55 68 -1 c37 0 85 -3 106 -7 l40 -7 -105 -41 -104 -42
-3 -77 c-2 -56 0 -75 9 -70 8 6 10 -18 5 -91 -3 -55 -8 -361 -12 -681 -6 -583
-6 -583 14 -583 11 0 85 9 164 21 79 11 160 19 180 16 75 -10 131 -77 169
-199 11 -33 18 -62 17 -64 -2 -1 -23 23 -48 54 -27 34 -64 66 -94 81 l-48 25
-137 -13 c-75 -6 -155 -15 -179 -18 l-42 -6 0 -443 0 -444 26 0 c21 0 25 3 19
18 -4 9 -9 64 -12 122 -15 301 104 513 288 514 107 1 196 -82 239 -222 28 -89
42 -237 34 -350 l-7 -92 270 0 271 0 4 65 c2 35 6 66 9 69 2 2 106 -1 231 -8
161 -9 232 -17 243 -26 9 -8 23 -30 31 -51 15 -36 16 -36 82 -43 146 -13 444
-2 636 25 79 11 86 14 97 41 6 15 16 31 22 35 13 8 246 51 251 46 5 -5 -19
-111 -32 -144 -15 -38 -57 -67 -106 -74 -55 -9 -58 -11 -84 -66 -50 -103 -142
-163 -252 -164 -55 0 -74 5 -120 31 -30 17 -71 51 -90 77 l-35 45 -621 7
c-529 5 -623 4 -633 -8 -6 -8 -39 -27 -74 -43 -60 -28 -67 -29 -251 -32 -214
-4 -248 3 -306 63 -29 30 -40 35 -82 35 l-48 0 0 -110 0 -110 1630 0 1630 0 0
1525 0 1525 -1630 0 -1630 0 0 -55z m1424 -30 c346 -32 720 -90 933 -145 115
-30 188 -59 148 -59 -11 0 -326 48 -700 108 -689 111 -768 131 -381 96z m-698
-70 c69 -20 127 -73 165 -150 37 -75 42 -130 59 -596 11 -323 14 -1192 4
-1276 l-7 -53 -79 0 c-120 0 -164 26 -188 111 -5 18 -17 101 -25 183 -45 434
-97 574 -237 637 -47 21 -66 24 -179 23 l-126 -1 -6 186 c-4 102 -10 317 -13
477 l-7 291 144 58 c295 120 310 124 380 125 36 0 88 -7 115 -15z m594 -60
c47 -8 290 -44 540 -80 501 -73 744 -117 801 -145 20 -11 47 -31 58 -46 25
-31 51 -114 51 -159 l0 -32 81 -6 c113 -7 183 -43 217 -109 l25 -48 -13 -217
c-13 -233 -19 -255 -68 -274 -34 -13 -69 2 -82 35 -15 40 -41 416 -30 436 6
11 27 21 50 25 46 8 48 14 18 43 -25 23 -92 41 -152 42 l-39 0 7 -77 c13 -158
46 -664 56 -875 11 -208 10 -220 -9 -262 -56 -127 -270 -184 -655 -173 -222 6
-377 24 -597 67 -255 51 -373 96 -410 157 -50 80 -56 164 -74 1006 l-6 297 65
0 c72 0 141 -22 156 -51 14 -26 14 -26 -30 -33 -23 -3 -43 -14 -49 -24 -9 -17
11 -362 24 -419 13 -55 75 -71 114 -29 21 22 24 40 37 232 8 115 11 223 8 239
-19 92 -100 144 -237 152 l-84 6 -6 112 c-11 225 16 248 233 210z m-29 -1906
c103 -21 165 -45 186 -71 18 -23 115 -306 111 -325 -3 -17 -14 -18 -136 -15
-74 1 -170 6 -215 11 -121 14 -121 13 -113 225 4 99 11 175 17 183 15 17 28
17 150 -8z m1530 -50 c8 -16 7 -49 -5 -138 -9 -64 -19 -128 -22 -142 -4 -24
-13 -27 -122 -52 -134 -31 -151 -32 -158 -13 -5 14 56 239 75 275 17 30 54 52
124 72 82 23 94 23 108 -2z"/>
<path d="M2222 1812 c-381 -552 -450 -657 -435 -663 21 -8 263 -33 267 -28 10
13 644 936 649 945 6 10 -19 393 -26 400 -1 2 -206 -293 -455 -654z"/>
<path d="M2669 1890 c-106 -150 -521 -754 -526 -767 -4 -10 8 -13 48 -12 l54
0 241 352 240 352 -5 70 -6 70 -46 -65z"/>
<path d="M264 941 c-74 -45 -114 -139 -114 -270 0 -106 20 -179 62 -226 37
-43 46 -40 19 6 -59 100 -66 277 -17 386 15 32 41 73 59 91 36 37 34 39 -9 13z"/>
<path d="M307 870 c-40 -47 -52 -96 -51 -205 0 -71 5 -111 17 -138 56 -123
144 -97 183 54 49 191 -58 398 -149 289z m81 -39 c10 -6 9 -11 -4 -22 -26 -22
-44 -73 -44 -128 0 -58 13 -97 42 -128 17 -19 19 -25 8 -38 -30 -36 -80 0 -99
70 -37 134 25 292 97 246z"/>
<path d="M2355 315 c-20 -19 -49 -42 -66 -51 -38 -19 -32 -27 14 -19 49 9 93
39 112 75 15 29 15 30 -5 30 -11 0 -36 -16 -55 -35z"/>
</g>
</svg>
