<svg width="173" height="92" viewBox="0 0 173 92" fill="none" xmlns="http://www.w3.org/2000/svg">
<rect width="171" height="88" transform="matrix(-1 5.79612e-10 5.79612e-10 1 172 2.00012)" fill="#7684C7"/>
<g clip-path="url(#clip0_20_480)">
<path d="M119.563 79.0585L10.3403 78.1326C7.92722 78.1092 7.06368 75.0173 7.08995 72.8353L7.36201 50.1795C7.39848 47.2087 7.50954 42.4085 8.13843 41.3355C5.13495 41.6761 4.36431 48.1094 4.30505 54.2039L4.12414 72.8064C4.07829 77.5214 5.37054 80.9166 11.0027 81.5267L119.529 82.5821L119.563 79.0585Z" fill="white"/>
<path fill-rule="evenodd" clip-rule="evenodd" d="M87.5605 84.9117L94.764 85.012C97.5467 85.0504 101.005 83.6136 102.826 81.5008L96.0824 81.4352C96.9827 76.076 98.0486 62.378 90.2388 60.3899C86.5195 59.4437 82.3026 62.8257 81.3041 69.3249C80.2247 76.3573 81.8235 84.8319 87.5605 84.9117Z" fill="white"/>
<path fill-rule="evenodd" clip-rule="evenodd" d="M90.1921 65.9607C88.5161 65.9444 87.1293 68.7619 87.0954 72.2527C87.0614 75.7435 88.3931 78.5875 90.0691 78.6038C91.7451 78.6201 93.1319 75.8026 93.1658 72.3118C93.1998 68.8209 91.8681 65.977 90.1921 65.9607Z" fill="#182D4D"/>
<path fill-rule="evenodd" clip-rule="evenodd" d="M90.1767 67.5408C88.9437 67.5288 87.9232 69.6759 87.8973 72.3363C87.8715 74.9967 88.85 77.162 90.0831 77.174C90.6169 77.1791 91.1105 76.7801 91.5007 76.1099C90.386 75.8781 89.5341 74.1798 89.5541 72.1265C89.5725 70.2283 90.3301 68.6466 91.3297 68.2537C90.9958 67.8062 90.6008 67.5461 90.1767 67.542" fill="white"/>
<path fill-rule="evenodd" clip-rule="evenodd" d="M88.8373 64.2031C84.5633 66.9585 83.813 74.8031 87.1775 79.6485C83.285 77.9635 82.541 65.9544 88.8373 64.2031Z" fill="#182D4D"/>
<path fill-rule="evenodd" clip-rule="evenodd" d="M115.059 8.85091C130.378 11.4447 142.694 12.5389 152.475 14.7771C156.477 15.533 157.021 18.0752 157.404 20.6348C157.8 25.6002 159.938 54.4236 159.536 56.9491C157.962 66.8695 123.957 62.2879 114.986 58.3334C111.04 56.8839 111.307 51.02 111.125 44.9724C111.016 41.3679 110.546 15.7451 110.479 13.5117C110.249 10.5371 110.634 7.80572 115.058 8.8509" fill="white"/>
<path fill-rule="evenodd" clip-rule="evenodd" d="M114.061 73.4704L123.507 74.1442C124.533 74.269 124.715 73.5198 124.313 72.2903L122.153 66.2803C121.641 64.6661 121.493 63.4883 117.546 62.7166L113.38 61.9024C112.114 61.6503 111.68 62.2216 111.644 63.5377L111.465 70.8969C111.522 72.691 111.532 73.2237 114.061 73.4704Z" fill="white"/>
<path fill-rule="evenodd" clip-rule="evenodd" d="M135.853 80.7176C136.635 84.3476 139.645 87.0665 143.268 87.1018C147.517 87.1431 150.997 83.4737 151.041 78.9064C151.044 78.601 151.031 78.3004 151.005 78.0036C146.35 79.5802 141.3 80.4853 135.853 80.7176Z" fill="white"/>
<path fill-rule="evenodd" clip-rule="evenodd" d="M148.222 80.0881C147.311 80.1664 147.498 80.283 146.822 80.3042C146.525 82.0646 145.313 83.4008 142.951 84.2538C146.241 84.6644 147.925 82.5578 148.222 80.0881Z" fill="#182D4D"/>
<path fill-rule="evenodd" clip-rule="evenodd" d="M156.565 74.4971L156.092 76.8906C155.811 78.3142 154.973 80.3684 153.237 80.5168C136.898 83.4402 123.301 82.9482 111.464 82.2008L111.918 75.0184L124.259 75.6837C125.637 75.8422 125.602 76.4957 126.591 78.6472C133.377 78.9404 140.88 79.0209 148.542 77.6503C149.004 76.4279 149.246 75.957 149.729 75.7395L156.563 74.4971L156.565 74.4971Z" fill="white"/>
<path fill-rule="evenodd" clip-rule="evenodd" d="M151.762 73.6805L151.728 73.6878L151.713 73.6914L151.344 73.7762C150.217 73.9924 150.133 73.5233 150.583 71.9184L151.958 67.1154C152.492 65.25 152.921 64.8857 154.31 64.263C154.871 64.011 157.283 63.3276 158.328 63.2053C158.791 63.5884 159.195 64.0038 159.094 64.798L158.058 72.236L151.762 73.6805Z" fill="white"/>
<path fill-rule="evenodd" clip-rule="evenodd" d="M96.8309 20.8119L98.6627 20.1305L103.337 30.5737L101.281 30.7518L96.8309 20.8119Z" fill="#182D4D"/>
<path fill-rule="evenodd" clip-rule="evenodd" d="M111.129 5.03758C120.214 5.01359 146.923 8.42875 150.707 11.3142C124.323 7.12981 111.129 5.03758 111.129 5.03758Z" fill="white"/>
<path fill-rule="evenodd" clip-rule="evenodd" d="M106.657 65.443C107.35 48.8712 106.852 34.8828 106.147 17.8191C106.286 7.51863 99.0097 5.86258 93.8848 7.59745L13.1067 40.2555C10.9315 41.4738 10.5119 41.5404 10.4457 48.7353L10.5021 52.7912L82.1806 39.1476C94.0822 36.8816 97.1132 40.454 98.5317 58.1267C99.2271 65.786 100.146 65.3797 106.657 65.443Z" fill="white"/>
<path fill-rule="evenodd" clip-rule="evenodd" d="M88.4461 52.7603L15.6921 60.58L15.2897 60.0371L88.9162 49.8505C92.3138 49.2172 94.7291 52.9022 95.3488 57.447C93.3938 54.0554 91.0589 52.4929 88.4461 52.7603Z" fill="white"/>
<path fill-rule="evenodd" clip-rule="evenodd" d="M22.6246 84.0151L28.0739 84.0908C30.1814 84.1202 32.2859 83.0274 33.6646 81.4265L28.8676 81.3799C29.1299 76.7326 29.899 66.6882 24.1342 65.4406C21.294 64.8261 18.1248 67.2855 17.3689 72.2069C16.551 77.5316 18.282 83.954 22.6258 84.0139" fill="white"/>
<path fill-rule="evenodd" clip-rule="evenodd" d="M24.0969 69.661C22.8273 69.6487 21.7779 71.7816 21.7522 74.4256C21.7264 77.0696 22.7342 79.2225 24.0038 79.2349C25.2734 79.2472 26.3228 77.1143 26.3485 74.4703C26.3742 71.8263 25.3665 69.6733 24.0969 69.661Z" fill="#182D4D"/>
<path fill-rule="evenodd" clip-rule="evenodd" d="M24.0854 70.8574C23.1514 70.8483 22.3783 72.474 22.3587 74.4883C22.3392 76.5025 23.0805 78.1429 24.0144 78.152C24.4183 78.156 24.7923 77.8541 25.0888 77.3459C24.2448 77.171 23.5998 75.8837 23.6149 74.3288C23.6289 72.8914 24.2034 71.6941 24.9586 71.396C24.7057 71.0565 24.4072 70.8593 24.0854 70.8561" fill="white"/>
<path fill-rule="evenodd" clip-rule="evenodd" d="M23.0712 68.3295C19.8349 70.416 19.2659 76.3565 21.8139 80.0239C18.8665 78.7482 18.3025 69.6539 23.0712 68.3295Z" fill="#182D4D"/>
<path fill-rule="evenodd" clip-rule="evenodd" d="M156.635 22.1104C156.185 22.9063 156.087 23.6298 156.342 24.2823C160.5 23.6058 163.73 24.5435 163.727 26.3925C163.161 26.3895 162.453 26.4508 161.883 26.622C160.611 27.0046 161.013 28.2808 161.128 29.8988C161.257 31.7011 161.449 34.4003 161.706 37.9961C161.951 41.4392 165.038 40.7447 165.714 38.7091C165.714 38.7091 165.953 34.9514 166.434 27.4374C166.271 23.6077 163.004 21.8556 156.635 22.1104Z" fill="white"/>
<path fill-rule="evenodd" clip-rule="evenodd" d="M109.931 18.1234C109.481 18.9193 109.383 19.6428 109.638 20.2953C113.796 19.6188 117.026 20.5565 117.023 22.4055C116.457 22.4025 115.749 22.4638 115.179 22.635C113.907 23.0177 114.308 24.2938 114.424 25.9118C114.553 27.7141 114.745 30.4133 115.001 34.0091C115.247 37.4522 118.333 36.7577 119.009 34.7208C119.009 34.7208 119.249 30.9644 119.73 23.4504C119.567 19.6207 116.299 17.8686 109.931 18.1234Z" fill="#3C567C"/>
<path fill-rule="evenodd" clip-rule="evenodd" d="M80.8392 10.9643L80.5814 16.4446L79.3211 43.2458L81.3202 43.2652L83.3218 43.2847L82.5817 16.464L82.4306 10.9797L80.8392 10.9643Z" fill="#3C567C"/>
<path fill-rule="evenodd" clip-rule="evenodd" d="M54.3794 21.1904L54.1711 25.6047L53.1559 47.1968L54.7675 47.2125L56.3779 47.2282L55.7827 25.6204L55.6603 21.2029L54.3794 21.1904Z" fill="#3C567C"/>
<path fill-rule="evenodd" clip-rule="evenodd" d="M30.2015 30L30.028 33.6952L29.1769 51.7713L30.526 51.7844L31.8752 51.7975L31.3771 33.7083L31.2742 30.0105L30.2015 30Z" fill="#3C567C"/>
<path fill-rule="evenodd" clip-rule="evenodd" d="M34.8228 27.4828C37.0497 23.8088 37.4428 23.3595 40.3378 22.0952L73.2992 7.70268C76.7241 6.20751 77.3165 6.15395 80.1694 6.24985L86.2803 6.42287L34.8215 27.484L34.8228 27.4828Z" fill="white"/>
<path fill-rule="evenodd" clip-rule="evenodd" d="M155.782 33.218L137.41 59.8477C136.929 59.8128 136.454 59.774 135.985 59.7341C133.807 59.5464 131.622 59.2904 129.447 58.965L154.959 21.9856C155.252 25.7269 155.523 29.4732 155.782 33.2193" fill="#3C567C"/>
<path fill-rule="evenodd" clip-rule="evenodd" d="M156.27 40.465L142.738 60.08C141.724 60.0701 140.712 60.0388 139.713 59.99L155.997 36.3856C156.049 37.1611 156.101 37.9353 156.153 38.7107C156.191 39.2955 156.231 39.8815 156.268 40.4663" fill="#3C567C"/>
</g>
<defs>
<clipPath id="clip0_20_480">
<rect width="161.86" height="81.7503" fill="white" transform="matrix(-0.999953 -0.00972427 -0.00972427 0.999953 166.647 5.57495)"/>
</clipPath>
</defs>
</svg>
